<?xml version="1.0" standalone="no"?><!DOCTYPE svg PUBLIC "-//W3C//DTD SVG 1.1//EN" "http://www.w3.org/Graphics/SVG/1.1/DTD/svg11.dtd"><svg t="1489984440468" class="icon" style="" viewBox="0 0 1024 1024" version="1.1" xmlns="http://www.w3.org/2000/svg" p-id="1124" xmlns:xlink="http://www.w3.org/1999/xlink" width="200" height="200"><defs><style type="text/css"></style></defs><path d="M919.066 644.767c-22.168 0-40.133 17.965-40.133 40.133v128.716c0 8.57-1.677 16.855-4.965 24.63-3.18 7.534-7.753 14.306-13.566 20.13-5.836 5.826-12.62 10.399-20.121 13.578-7.796 3.288-16.093 4.965-24.65 4.965H686.914c-22.168 0-40.133 17.965-40.133 40.133 0 22.168 17.965 40.133 40.133 40.133H815.63c19.348 0 38.151-3.789 55.91-11.29 17.083-7.23 32.434-17.574 45.62-30.76 13.164-13.185 23.507-28.526 30.736-45.62 7.502-17.725 11.301-36.528 11.301-55.898V684.9c0.001-22.168-17.964-40.133-40.132-40.133zM947.909 153.68c-7.23-17.117-17.583-32.468-30.747-45.632s-28.516-23.518-45.62-30.759c-17.736-7.502-36.54-11.301-55.91-11.301H686.915c-22.168 0-40.133 17.965-40.133 40.133s17.965 40.133 40.133 40.133H815.63c8.558 0 16.844 1.677 24.618 4.965 7.545 3.19 14.317 7.763 20.153 13.589 5.814 5.824 10.387 12.586 13.577 20.142 3.278 7.763 4.954 16.039 4.954 24.607v128.716c0 22.168 17.965 40.133 40.133 40.133s40.133-17.965 40.133-40.133V209.557c0-19.382-3.8-38.185-11.29-55.878zM108.137 378.405c22.168 0 40.143-17.965 40.143-40.133V209.557c0-8.57 1.666-16.844 4.954-24.628 3.19-7.535 7.753-14.296 13.588-20.132 5.815-5.814 12.587-10.386 20.143-13.577 7.774-3.288 16.049-4.965 24.607-4.965h128.716c22.168 0 40.143-17.965 40.143-40.133s-17.975-40.133-40.143-40.133H211.572c-19.36 0-38.174 3.8-55.898 11.301-17.116 7.241-32.468 17.595-45.61 30.748-13.186 13.174-23.53 28.526-30.759 45.62-7.49 17.714-11.301 36.517-11.301 55.898v128.716c0 22.168 17.965 40.133 40.133 40.133zM340.288 876.918H211.572c-8.558 0-16.855-1.677-24.607-4.954a63.394 63.394 0 0 1-20.143-13.577c-5.835-5.836-10.409-12.608-13.588-20.143-3.288-7.774-4.954-16.06-4.954-24.629V684.9c0-22.168-17.975-40.133-40.143-40.133S68.004 662.732 68.004 684.9v128.716c0 19.37 3.81 38.174 11.301 55.899 7.23 17.094 17.573 32.434 30.759 45.63 13.174 13.175 28.515 23.518 45.631 30.76 17.726 7.49 36.54 11.28 55.877 11.28h128.716c22.168 0 40.143-17.966 40.143-40.134 0.001-22.168-17.975-40.133-40.143-40.133zM757.033 537.706c22.168 0 40.143-17.965 40.143-40.133 0-22.167-17.975-40.133-40.143-40.133H559.135V259.532c0-22.168-17.977-40.133-40.144-40.133s-40.143 17.965-40.143 40.133v197.91H280.95c-22.168 0-40.144 17.965-40.144 40.132 0 22.168 17.976 40.133 40.144 40.133h197.898v197.92c0 22.168 17.975 40.133 40.143 40.133s40.144-17.965 40.144-40.133v-197.92h197.898z" fill="" p-id="1125"></path></svg>