<?xml version="1.0" standalone="no"?><!DOCTYPE svg PUBLIC "-//W3C//DTD SVG 1.1//EN" "http://www.w3.org/Graphics/SVG/1.1/DTD/svg11.dtd"><svg t="1492743580766" class="icon" style="" viewBox="0 0 1024 1024" version="1.1" xmlns="http://www.w3.org/2000/svg" p-id="2360" xmlns:xlink="http://www.w3.org/1999/xlink" width="200" height="200"><defs><style type="text/css"></style></defs><path d="M462.268854 561.782823c-117.489878 0-232.744855 0-348.913645 0 0-33.165354 0-65.398476 0-99.0499 115.610064 0 231.119845 0 348.428597 0 0-117.219725 0-233.048777 0-349.579817 34.057677 0 66.312288 0 99.946316 0 0 116.196419 0 231.730759 0 348.633259 116.910687 0 232.458329 0 348.912621 0 0 33.598212 0 65.830311 0 99.481735-115.606994 0-231.118821 0-348.427574 0 0 117.218702 0 233.048777 0 349.579817-34.057677 0-66.313312 0-99.946316 0C462.268854 794.653545 462.268854 679.116135 462.268854 561.782823z" p-id="2361"></path></svg>