<?xml version="1.0" standalone="no"?><!DOCTYPE svg PUBLIC "-//W3C//DTD SVG 1.1//EN" "http://www.w3.org/Graphics/SVG/1.1/DTD/svg11.dtd"><svg t="1509608280135" class="icon" style="" viewBox="0 0 1024 1024" version="1.1" xmlns="http://www.w3.org/2000/svg" p-id="1836" xmlns:xlink="http://www.w3.org/1999/xlink" width="128" height="128"><defs><style type="text/css"></style></defs><path d="M731.918 180.534H293.285c-40.383 0-73.106 32.72-73.106 73.103v24.368h584.844v-24.368c0.001-40.383-32.72-73.103-73.105-73.103m-127.696-48.735l10.756 76.91H410.225l10.756-76.91h183.24m5.855-48.735H415.128c-20.108 0-38.813 16.277-41.621 36.218L359.252 221.25c-2.784 19.917 11.4 36.194 31.508 36.194h243.685c20.108 0 34.293-16.276 31.484-36.217l-14.255-101.969c-2.786-19.917-21.49-36.194-41.598-36.194m134.026 243.675H281.1c-26.795 0-46.761 21.845-44.334 48.544l39.933 438.996c2.403 26.7 26.344 48.544 53.14 48.544h365.527c26.795 0 50.736-21.845 53.14-48.544l39.932-438.996c2.426-26.699-17.54-48.544-44.336-48.544M415.128 765.353h-73.106L317.653 424.21h97.474v341.144z m146.211 0h-97.474V424.21h97.474v341.144z m121.842 0h-73.106V424.21h97.474l-24.368 341.144z" p-id="1837" fill="#bfbfbf"></path></svg>