<?xml version="1.0" standalone="no"?><!DOCTYPE svg PUBLIC "-//W3C//DTD SVG 1.1//EN" "http://www.w3.org/Graphics/SVG/1.1/DTD/svg11.dtd"><svg t="1509602734837" class="icon" style="" viewBox="0 0 1051 1024" version="1.1" xmlns="http://www.w3.org/2000/svg" p-id="1851" xmlns:xlink="http://www.w3.org/1999/xlink" width="131.375" height="128"><defs><style type="text/css"></style></defs><path d="M242.871792 426.666661l229.743587 229.743587c13.128205 13.128205 32.820512 26.25641 59.076922 26.25641 19.692307 0 39.384615-6.564102 59.076922-26.25641l223.179484-223.179484c19.692307-19.692307 19.692307-45.948717 0-65.641025-6.564102-6.564102-19.692307-13.128205-32.820512-13.128205s-26.25641 6.564102-32.820512 13.128205L571.076916 538.256404 571.076916 45.948717C571.076916 19.692307 551.384609 0 525.128199 0 498.871789 0 479.179481 19.692307 479.179481 45.948717l0 492.307686L308.512817 361.025637C295.384612 354.461534 282.256407 347.897432 275.692304 347.897432 262.564099 347.897432 249.435894 354.461534 242.871792 361.025637 229.743587 367.589739 229.743587 380.717944 229.743587 393.846149 229.743587 406.974354 229.743587 413.538456 242.871792 426.666661z" p-id="1852" fill="#bfbfbf"></path><path d="M859.897425 118.153845c-26.25641 0-45.948717 19.692307-45.948717 45.948717 0 26.25641 19.692307 45.948717 45.948717 45.948717 52.51282 0 98.461537 45.948717 98.461537 98.461537l0 525.128199c0 52.51282-45.948717 98.461537-98.461537 98.461537L190.358972 932.102553c-52.51282 0-98.461537-45.948717-98.461537-98.461537l0-525.128199c0-52.51282 45.948717-98.461537 98.461537-98.461537 26.25641 0 45.948717-19.692307 45.948717-45.948717 0-26.25641-19.692307-45.948717-45.948717-45.948717C85.333332 118.153845 0 203.487177 0 308.512817l0 525.128199c0 105.02564 85.333332 190.358972 190.358972 190.358972l669.538453 0c105.02564 0 190.358972-85.333332 190.358972-190.358972l0-525.128199C1050.256397 203.487177 964.923065 118.153845 859.897425 118.153845z" p-id="1853" fill="#bfbfbf"></path></svg>