<?xml version="1.0" standalone="no"?><!DOCTYPE svg PUBLIC "-//W3C//DTD SVG 1.1//EN" "http://www.w3.org/Graphics/SVG/1.1/DTD/svg11.dtd"><svg t="1490410163702" class="icon" style="" viewBox="0 0 1024 1024" version="1.1" xmlns="http://www.w3.org/2000/svg" p-id="3670" xmlns:xlink="http://www.w3.org/1999/xlink" width="128" height="128"><defs><style type="text/css"></style></defs><path d="M984.615385 472.615385 551.384615 472.615385 551.384615 39.384615c0-21.740308-17.644308-39.384615-39.384615-39.384615s-39.384615 17.644308-39.384615 39.384615l0 433.230769L39.384615 472.615385c-21.740308 0-39.384615 17.644308-39.384615 39.384615s17.644308 39.384615 39.384615 39.384615l433.230769 0 0 433.230769c0 21.740308 17.644308 39.384615 39.384615 39.384615s39.384615-17.644308 39.384615-39.384615L551.384615 551.384615l433.230769 0c21.740308 0 39.384615-17.644308 39.384615-39.384615S1006.355692 472.615385 984.615385 472.615385z" p-id="3671"></path></svg>