<?xml version="1.0" standalone="no"?><!DOCTYPE svg PUBLIC "-//W3C//DTD SVG 1.1//EN" "http://www.w3.org/Graphics/SVG/1.1/DTD/svg11.dtd"><svg t="1490158994749" class="icon" style="" viewBox="0 0 1024 1024" version="1.1" xmlns="http://www.w3.org/2000/svg" p-id="3214" xmlns:xlink="http://www.w3.org/1999/xlink" width="200" height="200"><defs><style type="text/css"></style></defs><path d="M917.705 200.848c3.716 0.88 7.522 1.489 11.135 2.684 37.444 12.388 48.487 59.436 19.811 87.929-41.098 40.833-81.828 82.034-122.71 123.083-129.152 129.675-258.321 259.333-387.412 389.07-9.478 9.525-20.937 14.936-33.649 18.246-2.03 0.529-4.11 0.867-6.167 1.293-2.431 0-4.862 0-7.292 0-0.267-0.135-0.524-0.361-0.802-0.393-9.381-1.064-17.559-5.031-24.438-11.238-8.034-7.248-15.649-14.971-23.316-22.617C279.767 725.961 216.707 662.98 153.61 600.037c-6.42-6.404-11.434-13.641-13.956-22.418-0.917-3.189-1.516-6.471-2.259-9.709 0-3.24 0-6.482 0-9.723 1.011-3.883 1.771-7.852 3.073-11.635 11.25-32.678 53.197-43.608 78.964-20.623 1.586 1.414 3.116 2.895 4.616 4.4 55.456 55.668 110.905 111.342 166.347 167.023 0.997 1.002 1.885 2.111 3.533 3.969 1.167-1.605 1.911-2.975 2.966-4.033C555.939 537.57 715.015 377.881 874.051 218.152c8.303-8.339 17.845-14.181 29.502-16.338 1.681-0.311 3.357-0.643 5.036-0.966C911.628 200.848 914.666 200.848 917.705 200.848z" p-id="3215"></path></svg>