<?xml version="1.0" standalone="no"?><!DOCTYPE svg PUBLIC "-//W3C//DTD SVG 1.1//EN" "http://www.w3.org/Graphics/SVG/1.1/DTD/svg11.dtd"><svg t="1490158240814" class="icon" style="" viewBox="0 0 1024 1024" version="1.1" xmlns="http://www.w3.org/2000/svg" p-id="1138" xmlns:xlink="http://www.w3.org/1999/xlink" width="200" height="200"><defs><style type="text/css"></style></defs><path d="M579.888 512l190.064-190.064C778.624 313.264 784 301.248 784 288c0-26.512-21.488-48-48-48-13.248 0-25.248 5.376-33.936 14.064L512 444.112 321.936 254.064C313.248 245.376 301.248 240 288 240c-26.512 0-48 21.488-48 48 0 13.248 5.376 25.248 14.064 33.936L444.112 512 254.064 702.064C245.376 710.752 240 722.752 240 736c0 26.512 21.488 48 48 48 13.248 0 25.248-5.376 33.936-14.064L512 579.888l190.064 190.064C710.752 778.624 722.752 784 736 784c26.512 0 48-21.488 48-48 0-13.248-5.376-25.248-14.064-33.936L579.888 512z" p-id="1139"></path></svg>