<?xml version="1.0" standalone="no"?><!DOCTYPE svg PUBLIC "-//W3C//DTD SVG 1.1//EN" "http://www.w3.org/Graphics/SVG/1.1/DTD/svg11.dtd"><svg t="1505118775816" class="icon" style="" viewBox="0 0 1024 1024" version="1.1" xmlns="http://www.w3.org/2000/svg" p-id="2461" xmlns:xlink="http://www.w3.org/1999/xlink" width="128" height="128"><defs><style type="text/css"></style></defs><path d="M125.7 438.2h772.6c20.2 0 30.1-24.6 15.5-38.6L693.5 188.9c-14.2-13.6-37.9-3.5-37.9 16.2v121.1c0 12.4-10 22.4-22.4 22.4H125.7c-12.4 0-22.4 10-22.4 22.4v44.8c0 12.3 10 22.4 22.4 22.4zM898.3 585.8H125.7c-20.2 0-30.1 24.6-15.5 38.6l220.3 210.7c14.2 13.6 37.9 3.5 37.9-16.2V697.8c0-12.4 10-22.4 22.4-22.4h507.6c12.4 0 22.4-10 22.4-22.4v-44.8c-0.1-12.3-10.1-22.4-22.5-22.4z" p-id="2462"></path></svg>