<?xml version="1.0" standalone="no"?><!DOCTYPE svg PUBLIC "-//W3C//DTD SVG 1.1//EN" "http://www.w3.org/Graphics/SVG/1.1/DTD/svg11.dtd"><svg class="icon" width="128px" height="128.00px" viewBox="0 0 1024 1024" version="1.1" xmlns="http://www.w3.org/2000/svg"><path d="M947.959808 339.09248l-0.002048-0.004096c6.588416-8.056832 10.544128-18.35008 10.544128-29.569024 0-25.816064-20.927488-46.744576-46.741504-46.747648l-0.096256-0.201728-800.768 0-0.091136 0.206848c-25.734144 0.098304-46.567424 20.98688-46.567424 46.743552 0 12.244992 4.713472 23.384064 12.417024 31.719424l398.47936 468.415488 0.01024 0c8.541184 11.194368 22.013952 18.42176 37.180416 18.42176 14.726144 0 27.853824-6.815744 36.422656-17.458176l0.013312 0 398.866432-471.13216c0.084992-0.1024 0.173056-0.201728 0.257024-0.304128L947.959808 339.09248z" /></svg>